<svg width="553" height="935" viewBox="0 0 553 935" fill="none" xmlns="http://www.w3.org/2000/svg">
<g filter="url(#filter0_f_105_313)">
<path d="M163.108 685.735C146.329 691.78 130.14 697.314 114.971 702.247C9.54358 719.133 102.995 703.741 142.471 732.107C161.937 746.095 173.875 714.304 163.108 685.735C332.893 624.568 563.095 511.103 408.195 439.824C195.434 341.92 187.194 319.354 154.979 247.906C122.764 176.459 11.0211 21.2936 -65.3096 132.602C-141.64 243.911 -163.148 294.807 -160.117 362.683C-157.086 430.558 -26.752 459.169 -150.337 554.314C-273.922 649.459 -112.995 934.218 20.5 811.17C153.995 688.123 -107.579 721.564 41.4429 661.069C116.981 630.404 152.041 656.368 163.108 685.735Z" fill="#9747FF"/>
</g>
<defs>
<filter id="filter0_f_105_313" x="-287.557" y="0.612915" width="839.942" height="933.897" filterUnits="userSpaceOnUse" color-interpolation-filters="sRGB">
<feFlood flood-opacity="0" result="BackgroundImageFix"/>
<feBlend mode="normal" in="SourceGraphic" in2="BackgroundImageFix" result="shape"/>
<feGaussianBlur stdDeviation="46.5" result="effect1_foregroundBlur_105_313"/>
</filter>
</defs>
</svg>
