<svg width="48" height="48" viewBox="0 0 48 48" fill="none" xmlns="http://www.w3.org/2000/svg">
<path d="M33.6529 27.0604C32.2118 29.037 30.7097 31.0971 29.9047 33.4922H18.0986C17.2905 31.0695 15.7585 28.9786 14.2913 26.976L14.2813 26.9623L14.2809 26.9618C13.8729 26.4063 13.4693 25.8567 13.0817 25.3002L13.0812 25.2994C11.587 23.1622 10.7114 20.5586 10.7114 17.75C10.7114 10.4337 16.6598 4.5 24 4.5C31.34 4.5 37.2885 10.4335 37.2885 17.7578C37.2885 20.566 36.4132 23.1621 34.9183 25.3079L34.9182 25.308C34.5307 25.8645 34.127 26.4141 33.719 26.9697L33.718 26.9711L33.6529 27.0604ZM29.7675 37.75C29.7675 40.9257 27.1879 43.5 24 43.5C20.812 43.5 18.2324 40.9257 18.2324 37.75V37H29.7675V37.75ZM16.4789 19.5C17.4432 19.5 18.2324 18.715 18.2324 17.75C18.2324 14.5743 20.812 12 24 12C24.9642 12 25.7535 11.215 25.7535 10.25C25.7535 9.28504 24.9642 8.5 24 8.5C18.8757 8.5 14.7254 12.6366 14.7254 17.75C14.7254 18.715 15.5147 19.5 16.4789 19.5Z" stroke="#70E61C"/>
</svg>
